<?xml version="1.0" encoding="UTF-8" standalone="no"?>
<!DOCTYPE svg PUBLIC "-//W3C//DTD SVG 1.1//EN" "http://www.w3.org/Graphics/SVG/1.1/DTD/svg11.dtd">
<svg width="100%" height="100%" viewBox="0 0 720 720" version="1.1" xmlns="http://www.w3.org/2000/svg" xmlns:xlink="http://www.w3.org/1999/xlink" xml:space="preserve" xmlns:serif="http://www.serif.com/" style="fill-rule:evenodd;clip-rule:evenodd;stroke-linecap:round;stroke-linejoin:round;stroke-miterlimit:1.5;">
    <g id="NAPIS" transform="matrix(1.04793,0,0,1.28709,-24.8758,-162.052)">
        <ellipse cx="366.684" cy="486.663" rx="247.519" ry="233.337" style="fill-opacity:0;stroke:rgb(111,141,141);stroke-opacity:0;stroke-width:2.13px;"/>
        <path d="M106.368,500.361L105.233,479.923L118.42,479.437L120.736,521.156L72.743,499.784L73.81,518.994L60.622,519.48L58.381,479.12L106.368,500.361Z" style="fill-rule:nonzero;stroke:rgb(111,141,141);stroke-opacity:0;stroke-width:2.13px;stroke-linecap:butt;stroke-miterlimit:2;"/>
        <path d="M76.54,438.997L74.516,453.992L84.476,454.884L86.387,440.725L99.509,441.899L97.597,456.058L107.873,456.978L109.898,441.982L123.019,443.156L119.292,470.766L59.691,465.432L63.419,437.822L76.54,438.997Z" style="fill-rule:nonzero;stroke:rgb(111,141,141);stroke-opacity:0;stroke-width:2.13px;stroke-linecap:butt;stroke-miterlimit:2;"/>
        <path d="M90.101,398.923C88.337,399.974 86.919,401.099 85.847,402.298C84.775,403.497 84.037,404.723 83.633,405.975C83.121,407.561 83.165,408.954 83.765,410.154C84.365,411.353 85.408,412.112 86.895,412.43C87.921,412.649 88.848,412.579 89.676,412.221C90.504,411.862 91.293,411.328 92.043,410.618C92.792,409.908 93.512,409.08 94.201,408.134C94.889,407.188 95.601,406.258 96.334,405.344C99.268,401.687 102.406,399.223 105.748,397.952C109.091,396.681 112.967,396.516 117.377,397.459C120.351,398.095 122.911,399.078 125.059,400.407C127.206,401.737 128.886,403.368 130.099,405.301C131.312,407.234 132.025,409.439 132.24,411.917C132.455,414.395 132.097,417.075 131.168,419.955C129.242,425.925 125.279,430.991 119.277,435.152L108.822,427.293C111.414,425.884 113.487,424.386 115.04,422.799C116.593,421.212 117.653,419.542 118.219,417.789C118.865,415.785 118.782,414.172 117.971,412.95C117.159,411.727 116.036,410.963 114.6,410.656C113.728,410.469 112.931,410.433 112.21,410.546C111.488,410.66 110.764,410.951 110.037,411.42C109.31,411.89 108.564,412.545 107.8,413.385C107.035,414.226 106.155,415.254 105.16,416.469C104.033,417.924 102.852,419.334 101.617,420.699C100.382,422.063 98.957,423.209 97.343,424.136C95.728,425.063 93.868,425.691 91.76,426.021C89.653,426.352 87.164,426.21 84.292,425.596C81.421,424.982 78.943,424.039 76.859,422.768C74.775,421.497 73.126,419.984 71.911,418.229C70.695,416.474 69.953,414.485 69.683,412.263C69.413,410.041 69.682,407.678 70.49,405.173C71.244,402.835 72.43,400.478 74.046,398.101C75.662,395.724 77.616,393.531 79.909,391.522L90.101,398.923Z" style="fill-rule:nonzero;stroke:rgb(111,141,141);stroke-opacity:0;stroke-width:2.13px;stroke-linecap:butt;stroke-miterlimit:2;"/>
        <path d="M115.769,371.15L117.936,367.329C120.337,363.097 119.275,360.13 114.751,358.429C110.227,356.728 106.764,357.993 104.364,362.225L102.196,366.046L115.769,371.15ZM145.225,382.225L138.69,393.746L84.255,373.278L94.657,354.939C97.48,349.962 101.23,346.748 105.907,345.297C110.584,343.847 115.81,344.207 121.586,346.379C127.361,348.551 131.087,351.556 132.764,355.396C134.44,359.235 133.866,363.643 131.044,368.62L127.176,375.439L145.225,382.225Z" style="fill-rule:nonzero;stroke:rgb(111,141,141);stroke-opacity:0;stroke-width:2.13px;stroke-linecap:butt;stroke-miterlimit:2;"/>
        <path d="M145.551,330.236C147.46,331.401 149.491,332.182 151.644,332.578C153.796,332.974 155.928,333.034 158.037,332.757C160.147,332.48 162.143,331.877 164.025,330.949C165.906,330.02 167.53,328.813 168.897,327.328C170.264,325.843 171.231,324.234 171.798,322.503C172.364,320.772 172.522,319.035 172.272,317.291C172.022,315.547 171.361,313.89 170.29,312.319C169.218,310.749 167.727,309.381 165.818,308.216C163.909,307.051 161.878,306.271 159.726,305.874C157.573,305.478 155.434,305.427 153.308,305.721C151.182,306.015 149.179,306.627 147.297,307.555C145.416,308.484 143.791,309.691 142.424,311.176C141.057,312.661 140.091,314.27 139.524,316.001C138.958,317.732 138.808,319.461 139.074,321.187C139.339,322.913 140.008,324.562 141.08,326.133C142.152,327.704 143.642,329.071 145.551,330.236ZM135.775,340.858C132.212,338.684 129.385,336.123 127.294,333.175C125.204,330.228 123.888,327.105 123.345,323.808C122.803,320.51 123.101,317.146 124.239,313.714C125.377,310.282 127.408,306.977 130.333,303.799C133.226,300.656 136.544,298.149 140.286,296.279C144.028,294.409 147.926,293.214 151.982,292.695C156.037,292.175 160.095,292.318 164.157,293.124C168.218,293.93 172.031,295.42 175.594,297.594C179.158,299.769 181.985,302.33 184.075,305.277C186.165,308.224 187.474,311.355 188,314.67C188.527,317.985 188.213,321.367 187.059,324.816C185.905,328.265 183.882,331.562 180.989,334.705C178.064,337.883 174.738,340.398 171.012,342.251C167.286,344.104 163.403,345.282 159.364,345.784C155.325,346.286 151.274,346.134 147.213,345.328C143.151,344.522 139.339,343.032 135.775,340.858ZM128.035,287.834L127.279,302.907L119.137,304.088L116.982,289.585L128.035,287.834Z" style="fill-rule:nonzero;stroke:rgb(111,141,141);stroke-opacity:0;stroke-width:2.13px;stroke-linecap:butt;stroke-miterlimit:2;"/>
        <path d="M181.01,261.656L194.302,274.21L197.519,264.258L205.048,271.369L201.779,281.271L211.541,290.491L225.816,280.471L234.435,288.612L208.355,306.917L194.855,294.167L193.229,300.267L185.7,293.156L187.378,287.106L169.205,269.942L181.01,261.656Z" style="fill-rule:nonzero;stroke:rgb(111,141,141);stroke-opacity:0;stroke-width:2.13px;stroke-linecap:butt;stroke-miterlimit:2;"/>
        <path d="M277.469,229.512C275.371,229.013 273.412,228.782 271.591,228.819C269.77,228.857 268.127,229.127 266.661,229.629C264.803,230.264 263.473,231.141 262.67,232.258C261.867,233.376 261.763,234.512 262.358,235.666C262.769,236.461 263.401,237.018 264.255,237.334C265.108,237.651 266.109,237.835 267.257,237.887C268.406,237.939 269.65,237.9 270.991,237.768C272.333,237.637 273.672,237.53 275.009,237.447C280.358,237.115 284.67,237.641 287.944,239.026C291.217,240.411 293.738,242.814 295.504,246.237C296.695,248.545 297.297,250.797 297.309,252.993C297.322,255.189 296.755,257.268 295.611,259.228C294.466,261.188 292.752,262.992 290.468,264.639C288.184,266.287 285.356,267.688 281.984,268.842C274.995,271.233 267.646,271.758 259.938,270.415L261.228,258.877C264.18,259.693 266.901,260.12 269.393,260.157C271.885,260.194 274.157,259.861 276.21,259.159C278.556,258.356 280.077,257.321 280.774,256.052C281.471,254.784 281.531,253.593 280.956,252.478C280.607,251.802 280.158,251.265 279.608,250.868C279.058,250.471 278.333,250.181 277.433,249.997C276.533,249.813 275.441,249.73 274.156,249.748C272.872,249.767 271.334,249.824 269.544,249.922C267.441,250.08 265.348,250.175 263.266,250.209C261.184,250.242 259.201,250.02 257.315,249.541C255.429,249.063 253.684,248.244 252.079,247.084C250.474,245.924 249.096,244.23 247.946,242.002C246.796,239.773 246.205,237.599 246.175,235.479C246.145,233.359 246.614,231.372 247.584,229.519C248.554,227.666 250.039,225.975 252.04,224.448C254.04,222.92 256.507,221.655 259.439,220.652C262.176,219.715 265.195,219.045 268.494,218.642C271.794,218.239 275.121,218.166 278.474,218.423L277.469,229.512Z" style="fill-rule:nonzero;stroke:rgb(111,141,141);stroke-opacity:0;stroke-width:2.13px;stroke-linecap:butt;stroke-miterlimit:2;"/>
        <path d="M331.102,244.833L355.944,241.749L357.934,252.374L307.228,258.669L328.245,217.549L304.897,220.448L302.907,209.823L351.962,203.733L331.102,244.833Z" style="fill-rule:nonzero;stroke:rgb(111,141,141);stroke-opacity:0;stroke-width:2.13px;stroke-linecap:butt;stroke-miterlimit:2;"/>
        <path d="M389.199,225.211L411.449,207.414L430.508,209.585L403.025,229.793L424.403,258.184L404.399,255.904L387.92,232.649L384.316,253.616L368.88,251.857L377.191,203.51L392.627,205.269L389.199,225.211Z" style="fill-rule:nonzero;stroke:rgb(111,141,141);stroke-opacity:0;stroke-width:2.13px;stroke-linecap:butt;stroke-miterlimit:2;"/>
        <path d="M452.649,241.038C451.674,242.811 451.186,244.596 451.186,246.393C451.185,248.19 451.583,249.895 452.38,251.51C453.177,253.124 454.338,254.577 455.866,255.866C457.393,257.156 459.197,258.18 461.277,258.938C463.358,259.697 465.498,260.11 467.696,260.178C469.895,260.247 472.011,259.99 474.045,259.407C476.079,258.824 477.919,257.934 479.565,256.737C481.21,255.54 482.521,254.055 483.496,252.282C484.47,250.509 484.958,248.724 484.959,246.927C484.959,245.13 484.549,243.42 483.728,241.797C482.907,240.173 481.733,238.717 480.206,237.427C478.679,236.138 476.875,235.114 474.795,234.355C472.714,233.597 470.574,233.183 468.376,233.115C466.177,233.047 464.073,233.308 462.063,233.9C460.053,234.491 458.225,235.386 456.58,236.583C454.934,237.78 453.624,239.265 452.649,241.038ZM437.77,235.615C439.589,232.305 442.034,229.496 445.105,227.187C448.175,224.877 451.626,223.144 455.457,221.986C459.288,220.829 463.385,220.324 467.747,220.472C472.11,220.62 476.517,221.505 480.968,223.127C485.371,224.732 489.106,226.815 492.171,229.374C495.236,231.934 497.526,234.767 499.042,237.873C500.558,240.979 501.28,244.234 501.21,247.637C501.139,251.04 500.194,254.396 498.375,257.705C496.555,261.014 494.11,263.824 491.039,266.133C487.969,268.443 484.506,270.172 480.651,271.32C476.795,272.469 472.675,272.965 468.288,272.808C463.902,272.652 459.507,271.771 455.103,270.166C450.652,268.544 446.906,266.457 443.865,263.906C440.824,261.355 438.558,258.531 437.066,255.434C435.574,252.336 434.864,249.086 434.934,245.683C435.005,242.28 435.95,238.924 437.77,235.615ZM499.589,217.784L481.365,220.505L478.155,214.299L495.055,209.392L499.589,217.784Z" style="fill-rule:nonzero;stroke:rgb(111,141,141);stroke-opacity:0;stroke-width:2.13px;stroke-linecap:butt;stroke-miterlimit:2;"/>
        <path d="M543.303,255.593L530.744,268.638L543.359,269.284L536.245,276.673L523.68,275.976L514.458,285.557L529.292,295.023L521.148,303.482L494.047,286.188L506.802,272.938L499.137,272.819L506.25,265.43L513.866,265.6L531.035,247.765L543.303,255.593Z" style="fill-rule:nonzero;stroke:rgb(111,141,141);stroke-opacity:0;stroke-width:2.13px;stroke-linecap:butt;stroke-miterlimit:2;"/>
        <path d="M546.083,323.95L595.966,296.862L604.615,307.42L590.089,343.48L620.588,326.919L629.192,337.422L579.309,364.51L570.705,354.006L585.23,317.946L554.732,334.507L546.083,323.95Z" style="fill-rule:nonzero;stroke:rgb(111,141,141);stroke-opacity:0;stroke-width:2.13px;stroke-linecap:butt;stroke-miterlimit:2;"/>
        <path d="M621.081,376.245L622.126,378.484C623.217,380.825 624.649,382.437 626.422,383.32C628.195,384.203 630.196,384.3 632.427,383.611C634.657,382.921 636.075,381.767 636.681,380.149C637.288,378.53 637.045,376.55 635.954,374.21L634.909,371.97L621.081,376.245ZM602.245,411.916L595.358,397.147L611.639,379.163L590.08,385.828L584.547,373.964L640.603,356.636L649.212,375.098C650.397,377.64 650.974,380.001 650.941,382.181C650.909,384.361 650.387,386.312 649.374,388.033C648.362,389.754 646.961,391.249 645.171,392.518C643.381,393.787 641.297,394.789 638.918,395.524C634.656,396.842 630.808,397.073 627.376,396.218C623.943,395.363 620.994,393.447 618.528,390.47L602.245,411.916Z" style="fill-rule:nonzero;stroke:rgb(111,141,141);stroke-opacity:0;stroke-width:2.13px;stroke-linecap:butt;stroke-miterlimit:2;"/>
        <g transform="matrix(1,0,0,1,0,1.5539)">
            <path d="M614.75,474.474L609.115,435.442L626.173,446C630.685,448.784 634.48,450.942 637.557,452.473C640.633,454.004 643.209,455.115 645.284,455.808C647.359,456.5 649.018,456.896 650.26,456.994C651.502,457.093 652.544,457.101 653.386,457.021C654.281,456.935 655.133,456.734 655.942,456.418C656.75,456.101 657.449,455.676 658.039,455.141C658.629,454.607 659.074,453.988 659.373,453.286C659.672,452.584 659.756,451.783 659.626,450.882C659.379,449.168 658.501,447.894 656.993,447.06C655.485,446.226 653.704,445.908 651.65,446.104C651.071,446.16 650.238,446.305 649.151,446.539L647.164,432.778C650.639,432.446 653.865,432.604 656.841,433.254C659.818,433.903 662.453,434.966 664.748,436.441C667.043,437.917 668.908,439.748 670.345,441.936C671.782,444.123 672.699,446.589 673.095,449.333C673.484,452.033 673.318,454.581 672.597,456.975C671.875,459.369 670.687,461.493 669.032,463.346C667.378,465.2 665.316,466.723 662.846,467.915C660.376,469.108 657.614,469.85 654.56,470.142C651.296,470.455 648.199,470.175 645.271,469.304C642.343,468.432 639.251,466.892 635.996,464.683L625.596,457.529L627.861,473.219L614.75,474.474Z" style="fill-rule:nonzero;stroke:rgb(111,141,141);stroke-opacity:0;stroke-width:2.13px;stroke-linecap:butt;stroke-miterlimit:2;"/>
        </g>
        <g transform="matrix(1,0,0,1,0,1.5539)">
            <path d="M644.33,492.43C641.682,492.329 639.262,492.432 637.068,492.738C634.875,493.043 632.963,493.522 631.334,494.173C629.705,494.824 628.425,495.629 627.494,496.587C626.564,497.546 626.062,498.651 625.991,499.901C625.922,501.108 626.295,502.235 627.111,503.281C627.927,504.328 629.109,505.226 630.659,505.976C632.208,506.726 634.057,507.337 636.206,507.807C638.355,508.277 640.754,508.563 643.402,508.663C645.996,508.762 648.404,508.659 650.624,508.354C652.844,508.049 654.755,507.581 656.356,506.951C657.958,506.32 659.225,505.515 660.156,504.535C661.088,503.555 661.589,502.461 661.658,501.254C661.729,500.003 661.357,498.866 660.539,497.841C659.722,496.816 658.553,495.918 657.032,495.148C655.51,494.377 653.662,493.756 651.486,493.284C649.31,492.813 646.925,492.528 644.33,492.43ZM645.048,479.883C649.814,480.063 654.115,480.734 657.949,481.895C661.783,483.056 665.025,484.605 667.674,486.542C670.323,488.479 672.33,490.737 673.695,493.317C675.06,495.896 675.655,498.717 675.48,501.778C675.307,504.796 674.393,507.549 672.738,510.035C671.084,512.522 668.827,514.618 665.97,516.325C663.113,518.031 659.709,519.317 655.758,520.183C651.808,521.049 647.45,521.391 642.684,521.21C637.917,521.03 633.617,520.359 629.783,519.198C625.948,518.037 622.693,516.498 620.016,514.582C617.34,512.666 615.319,510.407 613.956,507.806C612.592,505.205 611.996,502.395 612.169,499.377C612.344,496.315 613.259,493.552 614.912,491.087C616.566,488.622 618.835,486.526 621.72,484.799C624.605,483.072 628.023,481.775 631.973,480.91C635.924,480.044 640.282,479.702 645.048,479.883Z" style="fill-rule:nonzero;stroke:rgb(111,141,141);stroke-opacity:0;stroke-width:2.13px;stroke-linecap:butt;stroke-miterlimit:2;"/>
        </g>
    </g>
    <g transform="matrix(1.20868,-0.0661169,-0.114728,1.03887,-9.13695,1.39808)">
        <path d="M215.186,340.495L229.531,334.102" style="fill:none;stroke:black;stroke-width:2.42px;"/>
    </g>
    <g transform="matrix(1.07258,-0.00631648,0.0570682,1.00833,-54.3615,-0.44629)">
        <path d="M501.988,339.812L486.686,334.234" style="fill:none;stroke:black;stroke-width:2.34px;"/>
    </g>
    <path d="M173.736,477.772L229.846,334.066" style="fill:none;stroke:black;stroke-width:3.89px;"/>
    <path d="M539.771,477.709L486.536,334.989" style="fill:none;stroke:black;stroke-width:3.89px;"/>
    <path d="M230.516,333.938C243.736,333.283 258.094,331.879 271.845,328.324C289.897,323.657 307.388,316.591 324.743,315.731C331.307,315.406 340.48,317.671 346.371,321.02C351.359,323.856 353.048,327.87 358.606,327.594" style="fill:none;stroke:black;stroke-width:3.89px;"/>
    <g transform="matrix(-1,0,0,1,717.034,0.217092)">
        <path d="M230.516,333.938C243.736,333.283 258.094,331.879 271.845,328.324C289.897,323.657 307.388,316.591 324.743,315.731C331.307,315.406 340.48,317.671 346.371,321.02C351.359,323.856 353.048,327.87 358.606,327.594" style="fill:none;stroke:black;stroke-width:3.89px;"/>
    </g>
    <g transform="matrix(1.00702,0,0,1,-1.22571,0)">
        <path d="M174.593,477.4C217.535,480.8 271.729,451.747 314.671,455.147C325.869,456.034 340.872,463.841 348.776,474.228C351.684,478.049 354.026,482.594 355.126,486.441C355.83,488.906 354.655,491.656 357.296,491.865" style="fill:none;stroke:black;stroke-width:3.88px;"/>
    </g>
    <g transform="matrix(-0.950555,0,0,1,705.336,0.480143)">
        <path d="M174.593,477.4C217.535,480.8 271.729,451.747 314.671,455.147C325.869,456.034 340.872,463.841 348.776,474.228C351.684,478.049 354.026,482.594 355.126,486.441C355.83,488.906 354.655,491.656 357.296,491.865" style="fill:none;stroke:black;stroke-width:3.99px;"/>
    </g>
    <path d="M132.381,511.067C165.615,512.965 297.562,510.647 330.654,511.691C332.536,511.75 330.936,517.331 330.936,517.331L384.494,517.331L383.728,512.163C383.728,512.163 551.826,514.188 585.206,512.214C589.146,511.981 586.857,503.959 585.206,500.374C572.003,471.696 520.561,366.486 505.789,339.781C504.271,337.036 495.459,337.212 496.577,340.143C506.452,366.034 553.581,471.083 564.28,494.025C565.019,495.61 533.025,496.746 502.125,491.928C470.984,487.072 434.948,474.329 419.062,473.64C404.189,472.995 399.262,476.982 392.498,481.039C376.827,490.441 373.612,505.934 373.612,505.934L343.957,505.934C343.957,505.934 334.735,478.83 310.553,476.807C296.836,475.66 268.198,479.855 237.782,486.849C197.835,496.035 151.415,497.503 152.279,495.133C160.742,471.902 209.456,365.178 218.887,339.578C219.983,336.603 211.428,338.886 209.907,341.668C195.39,368.233 143.997,472.049 131.25,500.304C129.767,503.593 128.779,510.862 132.381,511.067Z" style="stroke:black;stroke-width:1px;"/>
    <path d="M152.279,495.133L174.082,477.162" style="fill:none;stroke:black;stroke-width:3.89px;"/>
    <g transform="matrix(0.994321,0.0480276,-0.0537135,0.996856,27.8826,-24.5759)">
        <path d="M564.984,493.325L541.143,478.701" style="fill:none;stroke:black;stroke-width:3.91px;"/>
    </g>
    <g transform="matrix(0.565469,0,0,0.595914,364.885,356.213)">
        <g transform="matrix(1,0,0,1,-155.906,-306.142)">
            <g id="Layer-1" serif:id="Layer 1" transform="matrix(3.81735,0,0,3.80809,-130.304,-1125.42)">
                <path id="path9" d="M69.97,382.582C69.195,382.988 69.275,382.941 69.297,383.03C69.356,383.271 70.485,382.041 69.297,383.03C68.18,383.96 64.354,389.289 61.629,391.623C59.862,393.136 58.651,392.726 58.622,391.302C58.735,387.418 66.699,375.118 67.136,374.766C67.638,374.362 66.908,374.886 67.136,374.766L67.105,359.428C61.297,364.255 60.303,368.368 56.645,373.648C52.987,378.89 51.101,384.585 50.95,390.732C51.026,393.485 51.591,396.163 52.647,398.727C52.659,398.755 53.704,400.57 54.966,402.219C56.181,403.807 57.613,405.232 57.631,405.243C60.951,407.19 61.377,407.543 63.95,407.878C65.946,408.138 67.688,408.039 70.364,408.128C70.68,408.139 70.583,408.927 70.55,404.553C70.485,395.798 69.97,382.582 69.97,382.582ZM74.874,381.562C74.874,381.562 73.81,404.274 74.953,407.361C75.214,408.066 91.418,402.521 91.418,394.752C91.079,392.15 90.989,390.314 90.085,388.319C89.081,386.102 87.503,382.655 85.391,381.448C83.279,380.241 79.793,378.609 74.874,381.562ZM71.833,342.075C73.077,341.32 73.163,340.083 74.709,338.235C76.256,336.425 77.764,334.276 79.197,331.862C80.668,329.411 81.837,326.922 82.705,324.395C83.572,321.906 83.987,319.53 83.987,317.342C83.987,316.4 83.911,315.457 83.723,314.627C83.572,313.269 83.157,312.214 82.441,311.497C81.724,310.818 80.819,310.441 79.688,310.441C77.425,310.441 75.388,311.836 73.578,314.627C72.183,317.041 72.096,317.387 71.266,320.63C71.252,320.683 71.063,328.177 70.988,331.458C71.176,335.191 70.89,339.661 71.833,342.075ZM65.771,345.247C65.5,338.98 65.47,332.013 65.281,325.677C65.319,321.604 65.734,317.795 66.526,314.25C67.28,310.705 68.374,307.65 69.807,305.01C71.202,302.37 72.824,300.372 74.634,299.014C76.256,297.807 77.425,297.166 78.066,297.166C78.556,297.166 78.971,297.355 79.348,297.694C79.725,298.033 80.216,298.599 80.819,299.353C85.307,305.727 87.57,313.42 87.57,322.396C87.57,326.658 87.004,330.806 85.872,334.954C84.779,339.065 83.157,342.987 81.008,346.645C78.82,350.341 75.954,353.199 72.975,355.952L73.996,371.634C74.722,371.551 74.222,371.587 75.245,371.247C76.56,370.81 79.402,370.82 79.763,370.82C82.629,370.82 85.194,371.423 87.57,372.63C89.945,373.837 91.982,375.458 93.641,377.532C95.301,379.569 96.583,381.907 97.488,384.547C98.355,387.187 98.846,389.94 98.846,392.806C98.846,397.256 97.677,401.329 95.338,404.987C93.829,407.349 89.062,411.33 84.294,413.926C82.281,415.023 77.155,417.079 76.362,417.548C75.152,418.262 76.956,433.091 76.956,435.014C76.956,437.994 70.351,438.207 70.351,435.53C70.351,433.719 72.265,418.777 69.911,418.09C66.47,417.087 58.282,416.237 55.25,412.787C52.794,410.647 51.917,410.184 49.445,406.682C47.352,403.716 46.475,399.895 45.766,398.131C44.258,394.322 44.765,387.451 44.728,383.303C44.878,379.456 45.595,375.76 46.953,372.29C48.31,368.783 50.045,365.464 52.195,362.372C54.344,359.279 56.569,356.451 58.87,353.924C61.208,351.435 61.924,349.131 65.771,345.247Z" style="stroke:black;stroke-width:0.11px;stroke-linecap:butt;stroke-linejoin:miter;stroke-miterlimit:4;"/>
            </g>
        </g>
    </g>
</svg>
